<?xml version="1.0" standalone="no"?>
<!DOCTYPE svg PUBLIC "-//W3C//DTD SVG 20010904//EN"
 "http://www.w3.org/TR/2001/REC-SVG-20010904/DTD/svg10.dtd">
<svg version="1.0" xmlns="http://www.w3.org/2000/svg"
 width="580.000000pt" height="480.000000pt" viewBox="0 0 580.000000 480.000000"
 preserveAspectRatio="xMidYMid meet">

<g transform="translate(0.000000,480.000000) scale(0.100000,-0.100000)"
fill="#000000" stroke="none">
<path d="M3705 4341 c3 -5 31 -24 63 -41 31 -18 76 -44 100 -57 23 -14 42 -23
42 -20 0 3 -47 33 -105 66 -58 33 -103 56 -100 52z"/>
<path d="M3725 4272 c74 -45 145 -83 145 -79 0 7 -156 97 -167 97 -4 0 6 -8
22 -18z"/>
<path d="M2847 4263 c-4 -3 -7 -41 -7 -83 l0 -76 53 -26 53 -26 -4 30 c-5 35
-12 38 134 -49 l92 -54 16 -68 c9 -37 18 -76 21 -87 2 -10 22 -91 44 -179 35
-139 53 -215 66 -275 8 -38 47 -200 58 -240 6 -25 11 -52 11 -60 0 -8 5 -18
11 -22 6 -5 4 -8 -5 -8 -9 0 -11 -3 -4 -8 12 -8 46 -122 36 -122 -16 0 -61 37
-55 45 5 4 3 5 -4 1 -7 -4 -61 21 -121 56 l-109 62 -18 101 c-9 55 -22 128
-27 163 l-10 62 -67 -37 c-36 -20 -88 -49 -116 -64 l-50 -26 -3 -67 c-3 -62
-1 -69 25 -94 15 -15 276 -170 579 -345 l551 -317 -5 -30 c-6 -39 -15 -44 -49
-26 -26 13 -31 12 -75 -12 -27 -15 -48 -30 -48 -34 0 -11 77 -58 94 -58 7 0
20 10 28 22 13 20 17 21 32 9 15 -13 15 -16 -5 -37 l-21 -22 21 -11 c12 -7 21
-16 21 -22 0 -6 -10 -3 -22 5 -12 9 -30 16 -40 16 -9 0 -25 8 -35 19 -10 10
-36 30 -59 44 l-41 25 -51 -30 c-29 -16 -50 -33 -47 -38 3 -5 26 -20 50 -34
l46 -25 32 19 c33 20 71 20 91 0 7 -7 4 -10 -10 -10 -11 0 -25 5 -30 10 -8 8
-18 5 -35 -9 -13 -10 -22 -21 -19 -24 3 -2 24 -16 48 -31 l42 -27 45 26 c41
24 45 25 68 11 22 -15 26 -14 57 9 19 14 44 24 55 23 11 -2 20 3 20 10 0 6 3
12 8 12 4 0 12 0 17 0 7 0 8 -13 4 -35 -7 -41 -1 -42 45 -14 l35 21 -25 19
c-13 10 -27 19 -31 19 -14 0 -9 80 5 80 6 0 38 -16 71 -36 32 -19 68 -34 80
-32 l21 3 3 562 2 562 -22 25 c-13 14 -151 99 -308 189 -157 90 -486 279 -731
420 -246 141 -453 257 -461 257 -8 0 -18 -3 -21 -7z m731 -522 c-1 -3 2 -22 7
-41 4 -19 9 -44 10 -54 1 -15 78 -64 293 -189 l292 -169 0 -295 c0 -255 -2
-294 -15 -290 -32 13 -701 401 -707 411 -9 13 -11 570 -2 579 4 3 23 -3 44
-13 l38 -19 -14 52 c-18 70 -19 69 20 50 19 -9 34 -19 34 -22z m749 -928 c-3
-10 -5 -2 -5 17 0 19 2 27 5 18 2 -10 2 -26 0 -35z m-216 -221 c19 3 21 -5 8
-37 -4 -11 -10 -33 -14 -48 -4 -22 -11 -28 -28 -25 -16 2 -21 9 -19 24 2 12
-4 24 -13 27 -11 5 -15 20 -15 55 0 27 3 51 6 55 3 3 18 -8 31 -24 15 -17 33
-29 44 -27z m47 -302 c-2 -13 -7 -17 -16 -11 -9 5 -11 17 -6 36 6 23 8 25 16
11 5 -9 8 -25 6 -36z"/>
<path d="M3481 3654 c0 -11 3 -14 6 -6 3 7 2 16 -1 19 -3 4 -6 -2 -5 -13z"/>
<path d="M3530 3331 c0 -123 3 -171 13 -178 23 -18 127 -75 127 -69 0 3 -29
21 -65 41 l-65 37 0 159 0 160 30 -16 c41 -21 38 -12 -5 14 l-35 20 0 -168z"/>
<path d="M3610 3446 c0 -2 47 -32 105 -65 58 -33 103 -57 101 -52 -3 4 -47 32
-98 61 -116 66 -108 62 -108 56z"/>
<path d="M3900 3276 c0 -2 7 -7 16 -10 8 -3 12 -2 9 4 -6 10 -25 14 -25 6z"/>
<path d="M3940 3256 c0 -3 14 -12 30 -21 17 -9 30 -13 30 -11 0 3 -13 12 -30
21 -16 9 -30 13 -30 11z"/>
<path d="M3620 3240 c0 -5 5 -10 10 -10 6 0 10 5 10 10 0 6 -4 10 -10 10 -5 0
-10 -4 -10 -10z"/>
<path d="M3900 3236 c0 -3 14 -12 30 -21 17 -9 30 -13 30 -11 0 3 -13 12 -30
21 -16 9 -30 13 -30 11z"/>
<path d="M3695 3220 c3 -5 8 -10 11 -10 2 0 4 5 4 10 0 6 -5 10 -11 10 -5 0
-7 -4 -4 -10z"/>
<path d="M4010 3216 c0 -3 14 -12 30 -21 17 -9 30 -13 30 -11 0 3 -13 12 -30
21 -16 9 -30 13 -30 11z"/>
<path d="M3970 3196 c0 -3 14 -12 30 -21 17 -9 30 -13 30 -11 0 3 -13 12 -30
21 -16 9 -30 13 -30 11z"/>
<path d="M3930 3176 c0 -3 14 -12 30 -21 17 -9 30 -13 30 -11 0 3 -13 12 -30
21 -16 9 -30 13 -30 11z"/>
<path d="M4087 3169 c7 -7 15 -10 18 -7 3 3 -2 9 -12 12 -14 6 -15 5 -6 -5z"/>
<path d="M4040 3156 c0 -3 9 -10 20 -16 11 -6 20 -8 20 -6 0 3 -9 10 -20 16
-11 6 -20 8 -20 6z"/>
<path d="M3900 3146 c0 -2 7 -7 16 -10 8 -3 12 -2 9 4 -6 10 -25 14 -25 6z"/>
<path d="M4000 3136 c0 -3 14 -12 30 -21 17 -9 30 -13 30 -11 0 3 -13 12 -30
21 -16 9 -30 13 -30 11z"/>
<path d="M3960 3116 c0 -3 14 -12 30 -21 17 -9 30 -13 30 -11 0 3 -13 12 -30
21 -16 9 -30 13 -30 11z"/>
<path d="M3900 3106 c0 -3 14 -12 30 -21 17 -9 30 -13 30 -11 0 3 -13 12 -30
21 -16 9 -30 13 -30 11z"/>
<path d="M4070 3096 c0 -3 9 -10 20 -16 11 -6 20 -8 20 -6 0 3 -9 10 -20 16
-11 6 -20 8 -20 6z"/>
<path d="M3680 3076 c0 -2 32 -22 70 -45 39 -22 70 -37 70 -33 0 7 -140 85
-140 78z"/>
<path d="M4030 3076 c0 -3 9 -10 20 -16 11 -6 20 -8 20 -6 0 3 -9 10 -20 16
-11 6 -20 8 -20 6z"/>
<path d="M3970 3066 c0 -3 14 -12 30 -21 17 -9 30 -13 30 -11 0 3 -13 12 -30
21 -16 9 -30 13 -30 11z"/>
<path d="M3930 3046 c0 -3 14 -12 30 -21 17 -9 30 -13 30 -11 0 3 -13 12 -30
21 -16 9 -30 13 -30 11z"/>
<path d="M4087 3039 c7 -7 15 -10 18 -7 3 3 -2 9 -12 12 -14 6 -15 5 -6 -5z"/>
<path d="M4040 3026 c0 -2 16 -13 36 -25 19 -12 32 -16 29 -11 -7 11 -65 43
-65 36z"/>
<path d="M3901 3016 c2 -2 15 -9 29 -15 24 -11 24 -11 6 3 -16 13 -49 24 -35
12z"/>
<path d="M4000 3006 c0 -3 14 -12 30 -21 17 -9 30 -13 30 -11 0 3 -13 12 -30
21 -16 9 -30 13 -30 11z"/>
<path d="M3960 2986 c0 -3 14 -12 30 -21 17 -9 30 -13 30 -11 0 3 -13 12 -30
21 -16 9 -30 13 -30 11z"/>
<path d="M4070 2966 c0 -3 9 -10 20 -16 11 -6 20 -8 20 -6 0 3 -9 10 -20 16
-11 6 -20 8 -20 6z"/>
<path d="M3700 4236 c0 -3 14 -12 30 -21 17 -9 30 -13 30 -11 0 3 -13 12 -30
21 -16 9 -30 13 -30 11z"/>
<path d="M3920 4217 c0 -7 72 -48 76 -44 2 2 -14 14 -36 26 -22 12 -40 20 -40
18z"/>
<path d="M3770 4196 c0 -3 14 -12 30 -21 17 -9 30 -13 30 -11 0 3 -13 12 -30
21 -16 9 -30 13 -30 11z"/>
<path d="M3880 4187 c0 -7 111 -69 116 -65 2 2 -24 19 -56 37 -33 18 -60 30
-60 28z"/>
<path d="M3730 4167 c0 -2 37 -26 83 -52 45 -26 101 -59 125 -72 23 -14 42
-23 42 -20 0 3 -53 35 -117 73 -142 81 -133 76 -133 71z"/>
<path d="M3840 4157 c0 -5 48 -34 130 -79 30 -16 31 -17 11 -1 -32 24 -141 85
-141 80z"/>
<path d="M3701 4126 c2 -2 15 -9 29 -15 24 -11 24 -11 6 3 -16 13 -49 24 -35
12z"/>
<path d="M3765 4093 c6 -6 33 -23 60 -38 28 -16 46 -24 40 -18 -5 6 -32 23
-60 38 -27 16 -45 24 -40 18z"/>
<path d="M1912 4070 c-31 -13 -42 -48 -42 -132 0 -60 2 -69 16 -64 9 3 18 6
20 6 9 0 3 67 -7 77 -17 17 -1 37 17 22 11 -9 21 -4 49 24 19 19 37 32 41 28
4 -3 2 4 -4 15 -17 33 -47 41 -90 24z"/>
<path d="M3705 4073 c6 -5 37 -25 70 -43 33 -18 56 -28 50 -23 -5 6 -37 26
-70 44 -33 18 -55 28 -50 22z"/>
<path d="M3880 4026 c0 -3 14 -12 30 -21 17 -9 30 -13 30 -11 0 3 -13 12 -30
21 -16 9 -30 13 -30 11z"/>
<path d="M3840 3996 c0 -3 14 -12 30 -21 17 -9 30 -13 30 -11 0 3 -13 12 -30
21 -16 9 -30 13 -30 11z"/>
<path d="M3964 3976 c11 -9 24 -16 30 -16 12 0 7 5 -24 19 -24 11 -24 11 -6
-3z"/>
<path d="M3915 3953 c6 -6 28 -20 50 -32 22 -13 31 -15 20 -6 -22 18 -86 53
-70 38z"/>
<path d="M3850 3937 c18 -17 130 -81 130 -74 0 3 -33 24 -72 47 -40 23 -66 35
-58 27z"/>
<path d="M4136 3920 c-3 -8 -14 -40 -25 -71 l-19 -55 49 -28 49 -27 -7 31
c-16 83 -42 164 -47 150z"/>
<path d="M4352 3810 c-33 -157 -34 -146 25 -181 42 -25 51 -27 47 -12 -3 10
-15 81 -28 158 l-22 140 -22 -105z"/>
<path d="M1920 3871 c0 -6 5 -13 10 -16 6 -3 10 1 10 9 0 9 -4 16 -10 16 -5 0
-10 -4 -10 -9z"/>
<path d="M1854 3825 c-7 -17 4 -37 17 -30 12 8 12 45 -1 45 -6 0 -13 -7 -16
-15z m13 -17 c-3 -8 -6 -5 -6 6 -1 11 2 17 5 13 3 -3 4 -12 1 -19z"/>
<path d="M1918 3671 c-16 -15 -28 -33 -28 -39 0 -6 -8 -16 -17 -21 -10 -6 -12
-11 -5 -11 7 0 12 -14 12 -35 0 -20 7 -47 16 -60 11 -17 12 -25 4 -25 -7 0 -9
-8 -5 -22 6 -17 4 -20 -9 -15 -12 5 -16 0 -16 -17 0 -13 7 -27 16 -30 29 -11
141 -6 151 7 8 11 10 153 3 262 -2 34 -3 36 -9 15 -4 -14 -18 -30 -31 -37 -24
-12 -25 -11 -30 20 -6 41 -18 42 -52 8z"/>
<path d="M2840 3658 c0 -33 3 -36 109 -94 l108 -60 -9 35 c-6 20 -14 56 -18
81 l-8 45 -1 -43 -1 -42 -57 32 c-32 17 -73 43 -90 56 l-33 24 0 -34z"/>
<path d="M4462 3610 l-22 -19 42 -25 c23 -14 44 -23 46 -22 3 4 -36 86 -41 86
-1 -1 -12 -9 -25 -20z"/>
<path d="M1341 3512 c-13 -15 -17 -18 -10 -7 12 18 11 18 -11 -2 -14 -12 -29
-22 -35 -22 -26 -2 -5 -25 38 -41 l47 -18 0 59 c0 32 -1 59 -2 58 -2 0 -14
-12 -27 -27z"/>
<path d="M2845 3488 l-40 -21 33 -9 c43 -11 41 -18 -4 -11 -38 6 -84 -12 -84
-34 0 -9 15 -13 49 -13 63 0 96 12 117 45 16 24 16 27 -1 45 -22 24 -20 24
-70 -2z"/>
<path d="M902 3307 c-1 -87 2 -147 7 -145 5 2 37 44 70 95 33 51 53 89 45 86
-7 -3 -14 -9 -14 -15 0 -5 -5 -6 -12 -2 -8 5 -9 2 -5 -10 5 -14 3 -17 -8 -12
-8 3 -15 1 -15 -5 0 -6 -4 -8 -9 -4 -16 9 -41 -25 -43 -58 -1 -18 -5 24 -8 93
l-6 125 -2 -148z"/>
<path d="M2550 3436 c0 -2 7 -7 16 -10 8 -3 12 -2 9 4 -6 10 -25 14 -25 6z"/>
<path d="M2510 3417 c0 -6 207 -127 217 -127 5 0 -17 15 -47 33 -99 59 -170
99 -170 94z"/>
<path d="M2590 3416 c0 -3 57 -37 173 -103 4 -2 7 -2 7 1 0 3 -57 37 -172 103
-5 2 -8 2 -8 -1z"/>
<path d="M2460 3397 c0 -4 111 -68 213 -124 4 -2 7 -2 7 0 0 4 -111 68 -212
124 -5 2 -8 2 -8 0z"/>
<path d="M2076 3111 c-3 -5 1 -11 9 -15 9 -3 15 0 15 9 0 16 -16 20 -24 6z"/>
<path d="M2490 3025 c0 -42 -31 -78 -85 -101 -39 -16 -161 -19 -199 -4 -26 9
-26 9 -26 -39 0 -90 -70 -140 -195 -141 -78 0 -165 32 -184 69 -6 11 -11 47
-11 80 l0 61 -32 -8 c-42 -9 -124 -9 -164 0 -31 7 -32 5 -42 -33 -10 -38 -9
-41 16 -51 15 -6 62 -11 104 -12 l77 -1 -6 -26 c-7 -34 20 -90 56 -116 41 -31
115 -53 177 -53 50 0 66 6 150 55 85 50 94 58 94 85 0 29 1 30 53 30 46 0 64
7 157 63 115 68 122 79 96 141 -19 46 -36 46 -36 1z"/>
<path d="M2757 3016 c-54 -33 -54 -32 -2 -65 l48 -30 36 19 c20 10 44 25 55
33 17 13 16 15 -27 40 -55 33 -62 33 -110 3z"/>
<path d="M2032 3012 c-12 -2 -20 -8 -17 -13 8 -12 55 -12 55 0 0 14 -11 18
-38 13z"/>
<path d="M2633 2944 c-24 -14 -43 -29 -43 -33 0 -5 48 -36 108 -71 l107 -62
45 25 c25 14 45 31 45 37 0 12 -190 129 -210 129 -5 1 -29 -11 -52 -25z"/>
<path d="M2871 2940 l-44 -28 39 -24 c21 -13 45 -28 51 -32 12 -7 97 36 108
54 6 9 -77 60 -97 59 -7 0 -33 -13 -57 -29z"/>
<path d="M1905 2930 c-3 -5 3 -10 14 -10 12 0 21 5 21 10 0 6 -6 10 -14 10 -8
0 -18 -4 -21 -10z"/>
<path d="M2506 2869 c-56 -35 -64 -25 82 -109 l93 -53 47 26 c25 14 48 29 49
34 3 7 -205 133 -219 133 -2 0 -26 -14 -52 -31z"/>
<path d="M3003 2874 c-24 -14 -43 -29 -43 -34 0 -4 21 -20 46 -34 l46 -26 49
27 c27 14 49 30 49 34 0 9 -82 59 -96 59 -5 0 -28 -12 -51 -26z"/>
<path d="M2360 2786 c-131 -75 -140 -81 -140 -92 0 -12 97 -64 120 -64 8 0 21
9 28 20 7 12 16 18 21 16 9 -6 24 30 22 52 -2 16 15 16 22 -1 5 -15 229 -147
248 -147 20 0 100 51 94 60 -4 7 -246 149 -320 188 -17 8 -34 3 -95 -32z"/>
<path d="M2875 2799 l-49 -31 49 -30 49 -31 53 29 c29 15 53 31 53 34 0 5 -93
60 -102 60 -2 0 -26 -14 -53 -31z"/>
<path d="M3123 2803 c-24 -13 -43 -28 -43 -31 0 -4 21 -20 47 -35 l46 -29 46
26 c25 14 46 31 46 38 0 13 -72 58 -90 57 -5 -1 -29 -12 -52 -26z"/>
<path d="M2758 2732 c-27 -15 -47 -31 -45 -36 2 -5 23 -21 48 -35 l46 -25 46
27 c26 16 47 32 47 37 0 6 -86 61 -94 60 0 0 -22 -13 -48 -28z"/>
<path d="M3003 2733 c-24 -13 -43 -28 -43 -33 0 -5 21 -21 46 -36 l45 -27 47
26 c26 14 48 30 50 35 2 7 -89 64 -99 61 -2 -1 -23 -12 -46 -26z"/>
<path d="M3248 2732 c-27 -15 -48 -29 -48 -32 0 -3 21 -18 47 -34 l48 -29 52
29 c29 16 53 31 53 35 0 5 -93 59 -101 59 -2 0 -25 -13 -51 -28z"/>
<path d="M2877 2660 c-26 -17 -46 -34 -43 -38 2 -4 25 -18 50 -31 l45 -25 44
25 c25 13 46 29 47 34 2 8 -74 62 -90 64 -3 0 -27 -13 -53 -29z"/>
<path d="M3128 2662 c-27 -15 -47 -31 -45 -36 2 -5 23 -21 48 -35 l46 -25 46
27 c26 16 47 32 47 37 0 6 -86 61 -94 60 0 0 -22 -13 -48 -28z"/>
<path d="M3373 2664 c-24 -14 -43 -30 -43 -35 0 -4 21 -20 46 -35 l45 -27 47
26 c26 14 48 30 50 35 3 9 -82 63 -97 62 -3 -1 -25 -12 -48 -26z"/>
<path d="M2435 2649 c-6 -17 -22 -38 -36 -46 -24 -14 -29 -14 -59 1 -44 22
-57 20 -76 -9 -13 -20 -15 -42 -9 -144 9 -139 0 -257 -18 -243 -7 6 -77 47
-157 93 -80 45 -167 100 -194 123 l-49 40 -18 -23 c-50 -62 -27 -83 299 -268
24 -14 65 -37 90 -52 l47 -27 0 -195 0 -194 35 1 c38 0 50 -10 50 -43 0 -35
56 -31 108 7 56 41 57 64 1 55 -37 -6 -40 -5 -36 11 3 11 8 62 12 114 10 154
-1 148 128 72 62 -36 132 -77 157 -91 25 -13 169 -97 320 -185 l275 -161 65 1
65 0 291 169 291 170 -5 40 c-2 22 -7 43 -11 47 -3 4 -141 -72 -306 -168 -165
-96 -311 -174 -324 -174 -14 0 -222 114 -472 258 l-448 257 -1 41 c0 23 3 55
6 72 6 28 9 30 35 25 41 -8 44 11 14 87 -16 39 -28 95 -31 140 -4 47 -12 82
-22 93 -14 16 -14 19 4 32 10 8 31 19 47 26 15 6 27 15 27 20 0 7 -73 59 -83
59 -1 0 -7 -14 -12 -31z"/>
<path d="M1620 2637 c-8 -7 -16 -19 -18 -27 -2 -8 -7 -17 -12 -20 -4 -3 -1
-12 8 -20 14 -13 15 -12 9 3 -8 21 12 34 24 16 6 -10 9 -2 9 24 0 42 1 41 -20
24z"/>
<path d="M640 2610 c0 -5 5 -10 11 -10 5 0 7 5 4 10 -3 6 -8 10 -11 10 -2 0
-4 -4 -4 -10z"/>
<path d="M2757 2589 c-26 -16 -47 -32 -47 -37 0 -4 21 -19 48 -34 l47 -26 40
24 c22 13 45 26 50 28 13 5 -10 27 -55 54 l-35 21 -48 -30z"/>
<path d="M3002 2589 c-28 -17 -52 -32 -52 -34 0 -6 89 -55 100 -55 6 0 32 12
56 26 50 29 49 33 -16 72 l-35 21 -53 -30z"/>
<path d="M3247 2590 c-26 -17 -46 -34 -43 -38 2 -4 25 -18 50 -32 l45 -24 43
23 c63 35 64 37 18 66 -60 38 -60 38 -113 5z"/>
<path d="M3498 2593 c-27 -14 -48 -30 -48 -34 0 -5 21 -20 46 -35 l47 -28 46
26 c25 15 47 31 49 36 2 8 -77 63 -90 62 -2 0 -24 -12 -50 -27z"/>
<path d="M2503 2584 c-24 -14 -43 -29 -43 -33 0 -3 22 -18 48 -33 l49 -26 46
26 c26 14 47 30 47 36 0 13 -72 56 -92 56 -7 -1 -32 -12 -55 -26z"/>
<path d="M768 2555 c26 -21 29 -40 5 -31 -15 5 -14 3 2 -9 16 -12 17 -18 7
-24 -11 -7 -10 -10 3 -15 29 -11 15 63 -15 82 l-25 15 23 -18z"/>
<path d="M720 2546 c0 -2 7 -7 16 -10 8 -3 12 -2 9 4 -6 10 -25 14 -25 6z"/>
<path d="M2883 2521 c-60 -38 -60 -37 -7 -70 l48 -30 48 27 c26 15 48 32 48
37 0 6 -21 22 -48 36 l-47 27 -42 -27z"/>
<path d="M3128 2521 c-26 -14 -48 -30 -48 -36 0 -5 22 -22 48 -37 l49 -26 46
29 c26 16 47 32 47 37 0 4 -21 19 -48 33 l-47 27 -47 -27z"/>
<path d="M3367 2518 c-26 -16 -45 -33 -43 -36 2 -4 25 -18 50 -32 l46 -25 46
25 c25 14 48 28 50 32 4 7 -64 55 -89 63 -7 2 -33 -10 -60 -27z"/>
<path d="M3617 2520 c-26 -16 -47 -31 -47 -34 0 -7 87 -56 99 -56 16 0 91 49
91 59 0 8 -81 61 -92 61 -2 0 -25 -13 -51 -30z"/>
<path d="M1597 2494 c-43 -26 -76 -48 -74 -51 5 -5 145 75 153 88 8 14 5 12
-79 -37z"/>
<path d="M2628 2513 c-26 -14 -45 -29 -43 -34 5 -7 551 -324 577 -334 14 -6
108 43 108 56 0 7 -576 339 -587 339 -4 0 -29 -12 -55 -27z"/>
<path d="M1344 2475 c-9 -22 1 -29 15 -11 8 10 9 16 1 21 -5 3 -13 -1 -16 -10z"/>
<path d="M900 2466 c0 -17 14 -29 23 -20 8 8 -3 34 -14 34 -5 0 -9 -6 -9 -14z"/>
<path d="M3253 2451 c-60 -38 -60 -37 -7 -70 l48 -30 48 27 c26 15 48 32 48
37 0 6 -21 22 -48 36 l-47 27 -42 -27z"/>
<path d="M3497 2450 c-26 -16 -47 -33 -47 -37 0 -5 21 -19 46 -33 l46 -24 46
25 c25 13 47 29 49 34 2 6 -19 22 -45 37 l-49 27 -46 -29z"/>
<path d="M3743 2453 c-24 -13 -43 -30 -43 -36 0 -7 21 -23 46 -37 l46 -24 46
26 c26 15 48 30 49 35 3 7 -89 65 -98 62 -2 -1 -23 -12 -46 -26z"/>
<path d="M2991 2440 l-44 -28 39 -24 c21 -13 44 -27 50 -31 12 -7 99 36 109
53 6 10 -75 60 -96 59 -8 0 -34 -13 -58 -29z"/>
<path d="M1625 2447 c-5 -7 -16 -24 -24 -38 -14 -24 -14 -24 7 -6 20 18 20 18
25 -5 2 -13 5 -5 6 20 1 46 1 47 -14 29z"/>
<path d="M1274 2435 c-9 -22 1 -29 15 -11 8 10 9 16 1 21 -5 3 -13 -1 -16 -10z"/>
<path d="M970 2426 c0 -17 14 -29 23 -20 8 8 -3 34 -14 34 -5 0 -9 -6 -9 -14z"/>
<path d="M1204 2395 c-9 -22 1 -29 15 -11 8 10 9 16 1 21 -5 3 -13 -1 -16 -10z"/>
<path d="M3620 2381 c-25 -15 -44 -32 -44 -37 1 -5 21 -21 45 -35 l44 -26 47
26 c27 14 48 31 48 37 0 6 -21 22 -47 36 l-48 25 -45 -26z"/>
<path d="M1040 2386 c0 -17 14 -29 23 -20 8 8 -3 34 -14 34 -5 0 -9 -6 -9 -14z"/>
<path d="M3126 2377 c-22 -12 -41 -27 -43 -33 -2 -7 17 -23 43 -38 l46 -26 49
28 c27 15 49 30 49 34 0 8 -82 58 -96 58 -5 0 -27 -10 -48 -23z"/>
<path d="M3363 2374 c-24 -14 -41 -30 -38 -34 3 -4 25 -20 49 -34 l44 -26 46
26 c25 14 48 29 51 34 6 10 -75 60 -96 60 -8 -1 -33 -12 -56 -26z"/>
<path d="M770 2356 c0 -2 7 -9 15 -16 9 -7 15 -8 15 -2 0 5 -7 12 -15 16 -8 3
-15 4 -15 2z"/>
<path d="M890 2356 c0 -3 9 -10 20 -16 11 -6 20 -8 20 -6 0 3 -9 10 -20 16
-11 6 -20 8 -20 6z"/>
<path d="M1598 2301 c-77 -46 -115 -75 -68 -51 24 12 141 80 149 87 2 2 2 5 0
6 -2 2 -39 -17 -81 -42z"/>
<path d="M769 2323 c13 -11 21 -25 17 -32 -4 -6 -2 -11 4 -11 20 0 6 32 -20
48 l-25 14 24 -19z"/>
<path d="M3243 2304 c-24 -14 -43 -29 -43 -33 0 -3 21 -19 47 -34 45 -28 47
-28 78 -11 77 41 79 51 15 84 -48 25 -46 25 -97 -6z"/>
<path d="M3496 2307 c-22 -12 -41 -27 -43 -33 -2 -7 17 -23 43 -38 l46 -26 49
28 c27 15 49 30 49 34 0 8 -82 58 -96 58 -5 0 -27 -10 -48 -23z"/>
<path d="M966 2311 c16 -18 158 -100 164 -94 5 5 -4 11 -105 67 -38 21 -65 34
-59 27z"/>
<path d="M1340 2275 c0 -8 4 -15 9 -15 5 0 11 7 15 15 3 9 0 15 -9 15 -8 0
-15 -7 -15 -15z"/>
<path d="M902 2269 c2 -7 10 -15 17 -17 8 -3 12 1 9 9 -2 7 -10 15 -17 17 -8
3 -12 -1 -9 -9z"/>
<path d="M1616 2245 c-11 -8 -17 -15 -13 -15 4 0 3 -8 -2 -18 -6 -11 -6 -24 0
-33 7 -11 9 -11 9 0 0 7 6 11 15 7 12 -4 15 3 13 34 -1 22 -2 40 -2 40 -1 0
-10 -7 -20 -15z m14 -34 c0 -5 -7 -11 -14 -14 -10 -4 -13 -1 -9 9 6 15 23 19
23 5z"/>
<path d="M3363 2232 c-24 -15 -43 -29 -43 -32 0 -3 22 -18 50 -33 54 -30 59
-29 123 16 l29 20 -46 28 c-25 16 -52 29 -58 28 -7 0 -32 -13 -55 -27z"/>
<path d="M3613 2234 c-24 -14 -43 -29 -43 -33 0 -3 21 -19 47 -34 l46 -29 46
26 c25 14 46 31 46 38 0 12 -71 58 -90 57 -5 0 -29 -11 -52 -25z"/>
<path d="M1270 2235 c0 -8 4 -15 9 -15 5 0 11 7 15 15 3 9 0 15 -9 15 -8 0
-15 -7 -15 -15z"/>
<path d="M972 2229 c2 -7 10 -15 17 -17 8 -3 12 1 9 9 -2 7 -10 15 -17 17 -8
3 -12 -1 -9 -9z"/>
<path d="M635 2220 c3 -5 11 -10 16 -10 6 0 7 5 4 10 -3 6 -11 10 -16 10 -6 0
-7 -4 -4 -10z"/>
<path d="M1205 2199 c-4 -6 -5 -13 -2 -16 7 -7 27 6 27 18 0 12 -17 12 -25 -2z"/>
<path d="M1042 2188 c2 -6 10 -14 16 -16 7 -2 10 2 6 12 -7 18 -28 22 -22 4z"/>
<path d="M3243 2162 c-24 -15 -43 -30 -43 -34 0 -4 21 -19 47 -35 l46 -27 46
25 c25 14 46 30 48 36 4 10 -77 64 -94 62 -4 0 -27 -13 -50 -27z"/>
<path d="M3493 2164 c-24 -14 -43 -30 -43 -35 0 -4 20 -20 45 -34 l44 -27 51
28 c27 15 50 31 50 35 0 7 -87 59 -99 59 -3 -1 -25 -12 -48 -26z"/>
<path d="M3733 2162 c-24 -15 -43 -29 -43 -32 0 -3 49 -33 109 -68 l110 -63
38 20 c65 32 56 52 -53 115 -52 31 -100 56 -107 55 -7 0 -31 -13 -54 -27z"/>
<path d="M920 2141 c14 -11 30 -21 35 -21 11 0 -7 14 -40 31 -13 7 -12 3 5
-10z"/>
<path d="M3954 2146 c-19 -15 -19 -15 1 -30 28 -21 30 -20 33 14 3 33 -5 37
-34 16z"/>
<path d="M4319 2120 c-25 -22 -72 -54 -105 -73 l-59 -33 -3 -52 c-2 -29 0 -52
3 -52 12 0 200 112 223 133 25 23 29 72 8 100 -7 9 -15 17 -17 17 -2 -1 -25
-18 -50 -40z"/>
<path d="M1591 2105 c-109 -65 -111 -74 -3 -15 50 29 92 54 92 56 0 9 -19 1
-89 -41z"/>
<path d="M760 2136 c0 -2 7 -9 15 -16 9 -7 15 -8 15 -2 0 5 -7 12 -15 16 -8 3
-15 4 -15 2z"/>
<path d="M980 2108 c8 -9 47 -32 85 -53 39 -21 63 -31 55 -23 -8 9 -46 32 -85
53 -38 21 -63 31 -55 23z"/>
<path d="M3367 2090 c-26 -16 -47 -31 -47 -34 0 -2 21 -16 46 -31 49 -29 64
-27 128 14 l29 19 -42 27 c-61 38 -62 38 -114 5z"/>
<path d="M3613 2092 c-24 -15 -43 -30 -43 -33 0 -9 205 -129 219 -129 16 0 91
49 91 59 0 10 -203 132 -217 130 -4 0 -27 -13 -50 -27z"/>
<path d="M1344 2085 c-9 -22 1 -29 15 -11 8 10 9 16 1 21 -5 3 -13 -1 -16 -10z"/>
<path d="M900 2077 c0 -19 16 -31 24 -18 3 5 -1 14 -9 21 -12 10 -15 10 -15
-3z"/>
<path d="M1274 2045 c-9 -22 1 -29 15 -11 8 10 9 16 1 21 -5 3 -13 -1 -16 -10z"/>
<path d="M1620 2045 c-7 -8 -16 -13 -20 -10 -5 3 -6 -5 -2 -17 3 -12 7 -17 10
-10 6 18 20 15 25 -5 3 -10 5 -1 6 20 1 41 -1 44 -19 22z"/>
<path d="M970 2037 c0 -19 16 -31 24 -18 3 5 -1 14 -9 21 -12 10 -15 10 -15
-3z"/>
<path d="M3497 2026 c-21 -13 -43 -28 -48 -33 -15 -15 198 -136 226 -129 27 7
85 44 85 54 0 7 -213 133 -221 131 -2 0 -21 -11 -42 -23z"/>
<path d="M635 2020 c4 -6 11 -8 16 -5 14 9 11 15 -7 15 -8 0 -12 -5 -9 -10z"/>
<path d="M1203 2005 c-8 -22 6 -33 17 -15 13 20 12 30 0 30 -6 0 -13 -7 -17
-15z"/>
<path d="M1040 1996 c0 -8 5 -18 10 -21 6 -3 10 1 10 9 0 8 -4 18 -10 21 -5 3
-10 -1 -10 -9z"/>
<path d="M770 1966 c0 -2 8 -10 18 -17 15 -13 16 -12 3 4 -13 16 -21 21 -21
13z"/>
<path d="M1630 1929 c-113 -70 -492 -289 -500 -289 -9 0 -243 133 -433 247
l-109 65 -35 -18 c-19 -11 -38 -24 -43 -29 -6 -7 104 -76 306 -192 l315 -182
252 146 c139 81 283 164 320 186 73 42 73 42 7 76 -35 18 -35 18 -80 -10z"/>
<path d="M930 1946 c0 -8 191 -118 196 -113 3 3 -30 25 -73 49 -102 59 -123
70 -123 64z"/>
<path d="M767 1899 c7 -7 15 -10 18 -7 3 3 -2 9 -12 12 -14 6 -15 5 -6 -5z"/>
<path d="M1345 1889 c-4 -6 -5 -13 -2 -16 7 -7 27 6 27 18 0 12 -17 12 -25 -2z"/>
<path d="M900 1875 c0 -8 7 -15 15 -15 9 0 12 6 9 15 -4 8 -10 15 -15 15 -5 0
-9 -7 -9 -15z"/>
<path d="M1275 1849 c-4 -6 -5 -13 -2 -16 7 -7 27 6 27 18 0 12 -17 12 -25 -2z"/>
<path d="M970 1836 c0 -17 14 -29 23 -20 8 8 -3 34 -14 34 -5 0 -9 -6 -9 -14z"/>
<path d="M1582 1712 c-165 -96 -202 -121 -200 -137 2 -14 124 -90 463 -288
428 -249 463 -267 500 -263 37 3 88 31 393 210 23 14 42 32 42 39 0 12 -69 67
-83 67 -3 0 -56 30 -118 66 -647 377 -732 424 -762 424 -22 -1 -96 -38 -235
-118z m383 -14 c14 -6 25 -14 25 -18 0 -4 -32 -24 -71 -45 -39 -20 -116 -64
-171 -96 -55 -32 -105 -59 -111 -59 -7 0 -20 7 -30 15 -18 13 -18 14 5 28 65
41 149 90 203 118 33 17 71 40 84 50 28 22 32 23 66 7z m-245 -36 c0 -5 -11
-14 -25 -20 -29 -13 -33 -5 -7 14 20 15 32 18 32 6z m-196 -117 c-25 -19 -40
-19 -24 0 7 8 20 15 28 15 13 0 12 -3 -4 -15z m757 -141 c23 -28 -31 -55 -75
-38 -16 6 -22 35 -9 47 13 13 71 7 84 -9z m183 10 c9 -3 16 -15 16 -25 0 -15
-7 -19 -39 -19 -46 0 -62 17 -36 37 21 14 35 16 59 7z m-295 -63 c25 -16 4
-41 -34 -41 -23 0 -38 5 -42 16 -7 18 12 34 42 34 11 0 26 -4 34 -9z m205 -4
c15 -11 15 -15 4 -24 -39 -31 -107 -13 -78 22 15 18 50 19 74 2z m214 -2 c14
-13 -17 -40 -47 -41 -36 -1 -58 25 -38 45 12 12 72 9 85 -4z m-510 -67 c2 -11
-6 -22 -22 -29 -20 -10 -30 -9 -50 5 -16 10 -23 22 -19 32 8 22 87 15 91 -8z
m197 -3 c0 -15 -8 -21 -30 -23 -43 -3 -63 11 -45 33 20 24 75 16 75 -10z m212
9 c7 -19 -20 -44 -47 -44 -27 0 -54 25 -47 44 4 11 19 16 47 16 28 0 43 -5 47
-16z m-210 -120 c3 -9 0 -20 -8 -25 -35 -22 -93 3 -67 29 18 18 68 15 75 -4z"/>
<path d="M1205 1809 c-4 -6 -5 -13 -2 -16 7 -7 27 6 27 18 0 12 -17 12 -25 -2z"/>
<path d="M1040 1795 c0 -8 7 -15 15 -15 9 0 12 6 9 15 -4 8 -10 15 -15 15 -5
0 -9 -7 -9 -15z"/>
<path d="M4041 1689 c-13 -10 -34 -19 -47 -19 -15 0 -24 -6 -24 -15 0 -24 37
-17 72 14 37 33 36 50 -1 20z"/>
<path d="M4113 1602 c-13 -2 -23 -10 -23 -18 0 -19 39 -18 47 1 7 20 4 22 -24
17z"/>
<path d="M5170 1569 c-90 -56 -99 -70 -15 -24 91 49 114 65 95 64 -8 0 -44
-18 -80 -40z"/>
<path d="M1338 1495 c-26 -58 -21 -61 442 -332 500 -292 528 -308 575 -300 19
3 129 61 245 128 195 114 211 126 220 158 8 30 6 39 -11 57 l-20 22 -23 -23
c-23 -22 -329 -208 -398 -240 l-36 -18 -334 193 c-477 276 -618 360 -618 371
0 20 -31 8 -42 -16z"/>
<path d="M5034 1484 c-18 -14 -18 -15 4 -4 12 6 22 13 22 15 0 8 -5 6 -26 -11z"/>
<path d="M5369 1487 c-9 -9 -19 -14 -23 -12 -3 3 -4 2 -1 -1 2 -4 0 -14 -5
-23 -5 -10 -5 -23 1 -32 7 -11 9 -9 9 7 0 12 6 27 14 33 12 10 14 8 11 -14 -1
-17 1 -23 7 -17 5 5 8 24 6 43 -3 30 -4 32 -19 16z"/>
<path d="M4360 1460 c0 -5 5 -10 10 -10 6 0 10 5 10 10 0 6 -4 10 -10 10 -5 0
-10 -4 -10 -10z"/>
<path d="M4504 1396 c29 -23 10 -33 -24 -12 -43 25 -37 12 6 -14 21 -14 33
-28 30 -36 -3 -8 -1 -14 4 -14 6 0 10 16 10 35 0 26 -6 37 -22 45 -22 11 -22
10 -4 -4z"/>
<path d="M5376 1365 c-21 -12 -41 -27 -45 -33 -5 -9 -429 -258 -456 -268 -6
-3 -85 38 -176 90 -195 111 -389 216 -400 216 -4 0 -24 -10 -44 -21 l-36 -22
73 -42 c40 -24 183 -107 318 -185 135 -79 250 -143 255 -143 6 0 103 53 215
118 348 201 430 250 430 257 0 5 -90 60 -94 57 0 0 -18 -11 -40 -24z"/>
<path d="M5086 1333 c-9 -9 -7 -33 3 -33 12 0 22 28 12 34 -5 3 -11 3 -15 -1z"/>
<path d="M4632 1309 c2 -7 10 -15 17 -17 8 -3 12 1 9 9 -2 7 -10 15 -17 17 -8
3 -12 -1 -9 -9z"/>
<path d="M5015 1287 c-4 -10 -5 -21 -1 -24 10 -10 18 4 13 24 -4 17 -4 17 -12
0z"/>
<path d="M4702 1269 c2 -7 10 -15 17 -17 8 -3 12 1 9 9 -2 7 -10 15 -17 17 -8
3 -12 -1 -9 -9z"/>
<path d="M4940 1235 c0 -8 4 -15 9 -15 5 0 11 7 15 15 3 9 0 15 -9 15 -8 0
-15 -7 -15 -15z"/>
<path d="M4772 1229 c2 -7 10 -15 17 -17 8 -3 12 1 9 9 -2 7 -10 15 -17 17 -8
3 -12 -1 -9 -9z"/>
<path d="M2735 1210 c-3 -5 -1 -10 4 -10 6 0 11 5 11 10 0 6 -2 10 -4 10 -3 0
-8 -4 -11 -10z"/>
<path d="M2566 1115 c-11 -8 -17 -17 -14 -20 3 -3 16 3 29 14 27 23 14 28 -15
6z"/>
<path d="M2475 1060 c-3 -5 -1 -10 4 -10 6 0 11 5 11 10 0 6 -2 10 -4 10 -3 0
-8 -4 -11 -10z"/>
<path d="M2395 1010 c-3 -5 -1 -10 4 -10 6 0 11 5 11 10 0 6 -2 10 -4 10 -3 0
-8 -4 -11 -10z"/>
</g>
</svg>
