<?xml version="1.0" encoding="UTF-8" standalone="no"?>
<!-- Created with Inkscape (http://www.inkscape.org/) -->

<svg
   width="46.831215mm"
   height="10.054199mm"
   viewBox="0 0 46.831215 10.054199"
   version="1.1"
   id="svg290"
   xmlns="http://www.w3.org/2000/svg"
   xmlns:svg="http://www.w3.org/2000/svg">
  <defs
     id="defs287" />
  <g
     id="layer1"
     transform="translate(-66.831705,1372.8163)">
    <text
       xml:space="preserve"
       style="font-style:normal;font-weight:normal;font-size:12.6294px;line-height:1.25;font-family:sans-serif;letter-spacing:0px;word-spacing:0px;fill:#0071ba;fill-opacity:1;stroke:none;stroke-width:0.236804"
       x="66.844711"
       y="-1351.5667"
       id="text345-5"
       transform="scale(0.99120977,1.0088682)"><tspan
         id="tspan343-1"
         style="fill:#0071ba;fill-opacity:1;stroke-width:0.236804"
         x="66.844711"
         y="-1351.5667"><tspan
           style="font-style:normal;font-variant:normal;font-weight:bold;font-stretch:normal;font-family:Tahoma;-inkscape-font-specification:'Tahoma Bold';fill:#0071ba;fill-opacity:1;stroke-width:0.236804"
           id="tspan397-7">In</tspan></tspan></text>
    <text
       xml:space="preserve"
       style="font-style:normal;font-weight:normal;font-size:12.6294px;line-height:1.25;font-family:sans-serif;letter-spacing:0px;word-spacing:0px;fill:#fab900;fill-opacity:1;stroke:none;stroke-width:0.236804"
       x="80.797226"
       y="-1351.5421"
       id="text3141-8"
       transform="scale(0.99120977,1.0088682)"><tspan
         id="tspan3139-3"
         style="fill:#fab900;fill-opacity:1;stroke-width:0.236804"
         x="80.797226"
         y="-1351.5421">Pr  to</tspan></text>
    <path
       id="path895-1"
       style="fill:#fab900;fill-opacity:1;stroke-width:0.19812"
       d="m 98.200886,-1365.031 c 0.837755,-0.5746 1.154518,-1.2081 1.158192,-2.3162 0.0026,-0.7494 -0.104929,-0.9827 -0.759528,-1.6489 -0.687554,-0.6998 -0.861363,-0.776 -1.770294,-0.776 -0.865469,0 -1.107322,0.093 -1.711663,0.6565 -2.29935,2.1447 0.501655,5.8554 3.083293,4.0846 z m -1.505819,1.7621 c -0.169135,-0.686 -0.797044,-0.8442 -1.329516,-0.335 -0.564159,0.5394 -1.0186,0.2834 -0.832996,-0.4694 0.175702,-0.7125 -0.165756,-1.1016 -0.966798,-1.1016 -0.826446,0 -1.015818,-0.4645 -0.383149,-0.94 0.554492,-0.4167 0.485166,-1.168 -0.125912,-1.3654 -0.230354,-0.075 -0.371564,-0.3048 -0.371564,-0.6063 0,-0.3976 0.09887,-0.4862 0.5419,-0.4862 0.736431,0 1.107727,-0.6052 0.797081,-1.2991 -0.328378,-0.7335 0.06488,-1.1156 0.620965,-0.6033 0.551791,0.5083 1.378503,0.145 1.378503,-0.6057 0,-0.4227 0.08108,-0.5062 0.441849,-0.454 0.279619,0.041 0.464322,0.2244 0.503028,0.5013 0.08126,0.5814 0.80094,0.6888 1.34804,0.2013 0.532001,-0.4741 0.918086,-0.2624 0.787694,0.4319 -0.151044,0.8043 0.171804,1.2279 0.935688,1.2279 0.82812,0 0.98579,0.3759 0.3773,0.8995 -0.564337,0.4855 -0.458854,1.1473 0.23407,1.4686 0.58395,0.2709 0.43641,0.83 -0.21902,0.83 -0.65458,0 -1.102073,0.7096 -0.830342,1.3166 0.157893,0.3526 0.146902,0.5487 -0.044,0.7829 -0.228404,0.28 -0.30059,0.2685 -0.698555,-0.1116 l -0.443829,-0.4243 -0.410401,0.4177 c -0.225725,0.2297 -0.41041,0.5976 -0.41041,0.8175 0,0.6024 -0.747028,0.5254 -0.899484,-0.093 z" />
    <path
       style="fill:#0071ba;fill-opacity:1;stroke-width:0.19812"
       d="m 95.316554,-1365.6546 c -1.195774,-1.2171 -0.871754,-3.0011 0.663707,-3.6541 1.484624,-0.6312 2.988944,0.4437 2.988944,2.136 0,0.6871 -0.120585,0.9612 -0.667674,1.5181 -0.547384,0.5571 -0.816331,0.6795 -1.492493,0.6795 -0.676162,0 -0.945116,-0.1225 -1.492484,-0.6795 z"
       id="path897-9" />
  </g>
</svg>
